PathFileType	4	(X/Y/Z)	C:/Users/beibeiliu/ov580/test_trc/User1\sequence.21_training_dense_right.trc
DataRate	CameraRate	NumFrames	NumMarkers	Units	OrigDataRate	OrigDataStartFrame	OrigNumFrames
120	120	14	19	mm	120	106	280
Frame#	Time	ThumbCMC			ThumbMCP			ThumbIP			ThumbTip			IndexMCP			IndexPIP			IndexTip			MiddleMCP			MiddlePIP			MiddleTip			RingMCP			RingPIP			RingTip			PinkyMCP			PinkyPIP			PinkyTip			BackHand1			BackHand2			BackHand3	
		X0	Y0	Z0	X1	Y1	Z1	X2	Y2	Z2	X3	Y3	Z3	X4	Y4	Z4	X5	Y5	Z5	X6	Y6	Z6	X7	Y7	Z7	X8	Y8	Z8	X9	Y9	Z9	X10	Y10	Z10	X11	Y11	Z11	X12	Y12	Z12	X13	Y13	Z13	X14	Y14	Z14	X15	Y15	Z15	X16	Y16	Z16	X17	Y17	Z17	X18	Y18	Z18	
105	0.875	148.722	45.9129	63.5345	137.285	39.0494	23.7038	154.727	37.5303	-4.92164	182.009	27.9469	-12.6494	166.459	86.9638	-11.476	168.209	89.8897	-36.5688	173.996	88.7811	-61.7706	191.574	83.7392	-18.4338	192.628	86.2196	-43.8924	193.101	86.293	-77.176	207.84	72.3249	-15.5752	207.544	78.7298	-41.1503	208.998	79.9538	-63.5087	223.368	50.3384	0.995916	222.007	57.7964	-22.3741	221.299	67.8864	-42.4812	211.27	61.061	43.133	211.435	55.2705	77.3278	179.007	71.429	59.9676	
106	0.883333	142.75	43.0667	63.7287	134.144	35.8466	23.8796	153.119	36.5496	-4.45693	177.356	27.6761	-12.7092	163.106	84.792	-11.5079	165.024	88.7169	-35.0118	169.118	89.7947	-64.3591	187.532	84.4129	-20.2281	186.694	88.946	-48.0084	186.59	89.4275	-81.1094	202.622	74.9714	-15.7032	202.258	80.055	-39.6484	200.586	82.9255	-63.7899	222.161	53.093	0.846765	222.267	60.8613	-23.9434	221.769	71.506	-41.2198	211.815	64.7178	42.234	212.929	56.7496	76.7087	176.203	72.5479	58.8132	
107	0.891667	142.641	39.3885	63.8057	137.375	33.564	25.2028	153.227	35.4626	-3.47974	178.439	28.0162	-14.8819	155.798	84.5091	-10.772	154.952	89.5452	-38.4084	161.231	88.6963	-67.7014	180.019	86.2328	-21.7462	178.262	88.6051	-47.8862	182.745	87.8144	-76.9821	198.249	75.1499	-15.777	200.865	81.5199	-44.0397	195.752	83.6401	-66.0711	219.171	57.3727	-3.15514	218.159	63.839	-19.9313	213.722	77.1062	-42.3105	208.102	65.2923	41.4219	207.421	60.9399	73.1435	172.831	70.9918	60.3492	
108	0.9	144.429	37.0668	63.3783	133.773	32.2067	22.6117	147.351	32.2753	-5.97777	176.353	28.5949	-14.6646	151.582	81.6199	-10.6489	151.393	86.8141	-40.8781	154.115	87.1691	-67.9031	173.9	83.9483	-17.3336	176.512	87.6754	-47.8363	173.369	87.6234	-78.6323	194.326	76.6774	-19.4293	195.878	82.4283	-44.3057	193.353	85.5589	-70.4888	214.457	60.6111	-6.31829	212.484	65.7684	-21.3297	211.366	79.4137	-43.7617	204.917	65.552	41.0731	202.861	62.8274	72.7978	169.555	71.9857	59.6719	
109	0.908333	140.444	36.2202	63.2496	131.896	29.1908	25.9884	147.461	31.8526	-5.6866	174.388	28.4012	-15.1521	145.584	79.245	-9.60861	145.988	82.9231	-36.7447	150.197	86.0612	-67.6352	172.908	84.0624	-22.8995	166.604	86.8115	-48.6096	170.498	87.2892	-78.6983	193.686	75.7114	-19.278	191.947	81.281	-42.4545	187.893	84.013	-68.7645	209.798	61.939	-4.34545	210.053	67.6115	-25.226	204.452	78.4868	-45.4566	200.339	66.6606	40.289	204.47	63.2707	72.1717	167.968	67.9048	59.7323	
110	0.916667	138.691	37.2174	60.3021	130.996	27.0788	23.4517	142.246	28.4193	-5.67081	173.891	27.1271	-19.4478	147.352	77.6561	-10.7231	144.986	81.7813	-40.9471	144.876	83.6525	-66.5156	166.115	83.3074	-19.6152	165.69	85.9283	-53.3146	165.623	86.3776	-82.2786	189.856	75.0646	-17.4382	183.154	82.2249	-46.7441	181.701	82.2644	-67.9225	209.025	62.286	-5.5927	204.546	67.0235	-24.8178	204.165	79.4732	-47.1192	199.593	66.7415	40.0763	201.712	61.0303	73.1347	165.022	70.7727	57.3225	
111	0.925	141.978	35.1943	59.4981	132.157	24.4147	24.3839	142.737	25.8175	-4.73288	172.452	24.6888	-17.7587	144.449	76.4882	-13.4834	142.355	80.0624	-42.154	142.674	79.5757	-68.9037	167.101	81.655	-22.2898	161.723	83.7629	-50.3613	162.177	83.4346	-85.9774	189.09	74.6978	-20.248	182.085	79.2461	-46.7377	180.395	81.4402	-73.7155	206.69	60.0527	-4.45164	204.672	65.7953	-26.8049	201.947	76.3457	-47.0726	193.133	69.3469	36.0629	202.608	64.1602	69.5334	163.283	69.4116	59.7952	
112	0.933333	141.107	34.2158	59.173	135.1	24.8501	22.578	146.26	24.3034	-4.70645	175.894	23.1093	-18.3069	140.93	73.2908	-14.1233	142.79	77.3984	-44.312	144.879	76.1645	-67.3766	162.719	79.864	-27.318	163.884	81.6929	-51.6927	159.614	80.8938	-84.746	184.627	74.6077	-22.3392	181.901	78.5096	-49.6561	180.924	78.9519	-76.6265	208.475	60.1496	-7.1395	207.565	66.1711	-29.532	200.564	74.4689	-50.7323	195.701	71.1658	34.3622	200.17	65.8659	68.0852	162.691	67.5135	55.2	
113	0.941667	140.06	32.145	60.9755	132.071	19.8115	22.1471	148.401	25.0036	-8.37776	175.701	21.6964	-19.3223	144.199	72.9908	-15.3008	140.413	75.4701	-41.1852	147.496	76.4648	-72.249	168.979	78.3406	-25.2008	165.697	80.724	-57.532	162.95	79.4631	-82.2294	185.209	73.2209	-22.7505	186.999	78.3483	-49.6907	181.13	79.2787	-76.6475	208.823	61.2637	-10.4032	204.083	66.0409	-30.3398	202.838	74.6569	-48.8704	194.697	69.3685	33.3876	199.004	63.529	70.2705	162.662	66.4467	56.6822	
114	0.95	142.323	32.8212	57.6941	135.678	21.6349	22.8636	150.241	24.7447	-3.49429	178.512	25.786	-18.5926	144.239	72.979	-16.844	144.379	76.2363	-44.8609	149.749	76.9052	-71.7062	170.91	80.6907	-27.2516	164.735	81.0243	-53.0797	163.847	80.0844	-83.3315	186.45	74.8073	-22.7735	186.901	79.7235	-51.6332	186.003	79.4301	-72.6799	212.593	62.2369	-8.14672	208.401	66.9524	-30.3329	205.427	74.9731	-48.7268	198.553	69.4206	38	198.126	67.0708	66.6806	162.949	66.2159	56.6638	
115	0.958333	144.46	31.5599	60.5196	136.134	22.4935	20.9673	149.605	26.1777	-6.72648	178.434	27.1147	-17.985	150.032	75.0051	-15.4198	147.275	79.1205	-44.9405	148.583	79.8153	-73.6382	170.731	82.7138	-25.3209	170.361	85.2185	-57.3103	166	84.3572	-87.4664	194.227	75.3027	-19.6251	188.263	81.1051	-47.7493	189.134	81.8739	-73.3801	211.796	63.2159	-7.98031	208.572	67.8713	-29.2594	204	77.7001	-47.8201	199.64	69.2761	38.4912	201.15	65.142	69.4434	167.739	70.6864	54.5543	
116	0.966667	149.017	36.3799	57.6697	139.395	26.8125	20.0755	151.703	30.5306	-9.42085	177.041	29.4485	-20.6993	152.321	78.7666	-15.021	149.113	84.2331	-45.3149	156.69	84.2508	-73.0573	171.987	86.3229	-25.3391	174.194	88.8779	-55.759	173.937	89.4781	-84.532	194.072	79.6546	-21.6876	193.722	85.8636	-46.6656	191.813	85.4177	-70.8043	212.688	66.2803	-6.34834	213.4	70.6523	-23.3065	205.4	80.6643	-47.3835	199.812	72.4384	35.7381	202.496	67.3703	73.3528	166.973	71.5491	58.4315	
117	0.975	151.266	37.2844	58.206	139.364	29.1508	21.4358	156.241	35.5679	-4.22649	181.192	34.4295	-22.5088	151.85	84.4816	-15.3215	152.358	88.8415	-40.879	159.209	90.8034	-68.5752	176.445	90.3184	-21.4764	174.724	93.9834	-46.3536	177.029	96.1897	-80.4557	199.835	83.9729	-17.3863	196.629	90.1434	-42.8634	193.066	93.7165	-70.6737	218.684	70.271	-5.80345	216.71	75.3719	-20.7427	209.342	86.4355	-45.9066	201.778	73.774	38.9063	208.688	65.2165	73.6055	170.051	72.8422	55.4152	
118	0.983333	150.203	38.6699	62.3038	143.696	36.5939	22.3333	154.886	39.49	-3.79486	181.627	40.4832	-19.348	155.845	88.5251	-7.53518	156.389	95.9129	-34.647	161.06	99.0309	-63.2099	179.879	94.2747	-14.2009	178.861	101.22	-42.3144	183.527	104.313	-75.0374	203.277	89.9316	-15.1892	201.294	97.9959	-41.6493	195.811	102.059	-64.1632	221.562	71.7071	2.23058	221.909	81.0902	-22.1446	214.111	91.4363	-38.7321	207.055	75.6883	45.1496	211.006	65.9736	76.148	173.956	76.174	59.4719	
